<svg xmlns="http://www.w3.org/2000/svg" width="800" height="600" viewBox="0 0 800 600">
<g stroke="#222" stroke-width="7" stroke-linejoin="round" stroke-linecap="round">
<rect x="4" y="4" width="792" height="592" rx="12" fill="#9ED8FF"/>
<path d="M179 100 L201 100 M162 142 L177 157 M120 159 L120 181 M78 142 L63 157 M61 100 L39 100 M78 58 L63 43 M120 41 L120 19 M162 58 L177 43 " fill="none"/><circle cx="120" cy="100" r="45" fill="#FFC81E"/>
<g transform="translate(320 80) scale(0.9 0.9)" stroke-width="7.78"><path d="M-70 20 Q-95 -10 -60 -20 Q-50 -55 -10 -45 Q15 -70 45 -45 Q85 -45 75 -10 Q100 15 65 25 Z" fill="#FFFFFF"/></g>
<rect x="640" y="250" width="36" height="250" rx="6" fill="#6B3B1F"/><path d="M520 250 Q520 170 600 180 Q650 130 720 170 Q800 170 780 240 Q700 270 600 260 Q540 265 520 250 Z" fill="#2DB43E"/>
<path d="M4 500 Q200 460 400 490 T796 480 L796 596 L4 596 Z" fill="#9EE25B"/>
<rect x="230" y="410" width="30" height="130" rx="12" fill="#FFC81E"/><rect x="380" y="410" width="30" height="130" rx="12" fill="#FFC81E"/><path d="M200 380 Q160 400 150 450" fill="none"/><ellipse cx="150" cy="460" rx="10" ry="14" fill="#6B3B1F"/><ellipse cx="310" cy="390" rx="125" ry="70" fill="#FFC81E"/><rect x="265" y="420" width="30" height="130" rx="12" fill="#FFC81E"/><rect x="345" y="420" width="30" height="130" rx="12" fill="#FFC81E"/><rect x="262" y="530" width="36" height="22" rx="6" fill="#6B3B1F"/><rect x="342" y="530" width="36" height="22" rx="6" fill="#6B3B1F"/><rect x="227" y="525" width="36" height="22" rx="6" fill="#6B3B1F"/><rect x="377" y="525" width="36" height="22" rx="6" fill="#6B3B1F"/><path d="M370 350 L440 150 L495 170 L430 385 Z" fill="#FFC81E"/><ellipse cx="260" cy="380" rx="28" ry="20" fill="#C47C3D"/><ellipse cx="330" cy="360" rx="24" ry="18" fill="#C47C3D"/><ellipse cx="360" cy="410" rx="26" ry="18" fill="#C47C3D"/><ellipse cx="290" cy="420" rx="22" ry="16" fill="#C47C3D"/><ellipse cx="425" cy="280" rx="16" ry="20" fill="#C47C3D"/><ellipse cx="450" cy="210" rx="14" ry="18" fill="#C47C3D"/><path d="M455 115 L450 80 M495 115 L505 82" fill="none"/><circle cx="450" cy="76" r="10" fill="#6B3B1F"/><circle cx="506" cy="78" r="10" fill="#6B3B1F"/><ellipse cx="430" cy="135" rx="22" ry="12" fill="#FFC81E" transform="rotate(-30 430 135)"/><ellipse cx="485" cy="145" rx="58" ry="40" fill="#FFC81E" transform="rotate(15 485 145)"/><ellipse cx="528" cy="165" rx="34" ry="26" fill="#F8CBA2" transform="rotate(15 528 165)"/><circle cx="485" cy="135" r="9" fill="#1E1E1E"/><circle cx="487.7" cy="131.85" r="3.15" fill="#fff" stroke="none"/><circle cx="535" cy="160" r="3" fill="#1E1E1E"/><path d="M515 180 Q528 190 542 180" fill="none"/>
<path d="M90 563 L90 608" fill="none"/><circle cx="90" cy="545" r="18" fill="#FF5FA2"/><circle cx="90" cy="545" r="7.56" fill="#FFC81E"/>
</g></svg>
